<mxfile host="app.diagrams.net" modified="2022-06-23T07:45:40.879Z" agent="5.0 (Macintosh; Intel Mac OS X 10_15_7) AppleWebKit/537.36 (KHTML, like Gecko) Chrome/102.0.5005.61 Safari/537.36" etag="MG91NuyN7qKr0Y7XmOoA" version="20.0.1" type="github" pages="2">
  <diagram id="twkX-wiHloh2bhLJ1bMH" name="mainpage">
    <mxGraphModel dx="3096" dy="1377" grid="1" gridSize="10" guides="1" tooltips="1" connect="1" arrows="1" fold="1" page="1" pageScale="1" pageWidth="850" pageHeight="1100" math="0" shadow="0">
      <root>
        <mxCell id="0" />
        <mxCell id="1" parent="0" />
        <mxCell id="OnwGt_X_7mAQr5yjR0-S-35" value="" style="rounded=0;whiteSpace=wrap;html=1;" vertex="1" parent="1">
          <mxGeometry x="50" y="960" width="720" height="400" as="geometry" />
        </mxCell>
        <mxCell id="OnwGt_X_7mAQr5yjR0-S-36" value="" style="verticalLabelPosition=bottom;shadow=0;dashed=0;align=center;html=1;verticalAlign=top;strokeWidth=1;shape=mxgraph.mockup.misc.map;" vertex="1" parent="1">
          <mxGeometry x="50" y="960" width="720" height="400" as="geometry" />
        </mxCell>
        <mxCell id="OnwGt_X_7mAQr5yjR0-S-59" value="" style="rounded=0;whiteSpace=wrap;html=1;fontFamily=Verdana;fontSize=7;" vertex="1" parent="1">
          <mxGeometry x="430" y="1008" width="340" height="345" as="geometry" />
        </mxCell>
        <mxCell id="OnwGt_X_7mAQr5yjR0-S-1" value="" style="rounded=0;whiteSpace=wrap;html=1;" vertex="1" parent="1">
          <mxGeometry x="40" y="40" width="720" height="400" as="geometry" />
        </mxCell>
        <mxCell id="OnwGt_X_7mAQr5yjR0-S-2" value="" style="verticalLabelPosition=bottom;shadow=0;dashed=0;align=center;html=1;verticalAlign=top;strokeWidth=1;shape=mxgraph.mockup.misc.map;" vertex="1" parent="1">
          <mxGeometry x="40" y="40" width="720" height="400" as="geometry" />
        </mxCell>
        <mxCell id="OnwGt_X_7mAQr5yjR0-S-4" value="" style="rounded=1;whiteSpace=wrap;html=1;" vertex="1" parent="1">
          <mxGeometry x="50" y="50" width="700" height="40" as="geometry" />
        </mxCell>
        <mxCell id="OnwGt_X_7mAQr5yjR0-S-5" value="infomakam.xyz" style="text;html=1;strokeColor=none;fillColor=none;align=left;verticalAlign=middle;whiteSpace=wrap;rounded=0;fontSize=16;" vertex="1" parent="1">
          <mxGeometry x="58" y="55.5" width="110" height="25" as="geometry" />
        </mxCell>
        <mxCell id="OnwGt_X_7mAQr5yjR0-S-6" value="&lt;font style=&quot;font-size: 13px;&quot; face=&quot;Verdana&quot;&gt;login&lt;/font&gt;" style="rounded=1;whiteSpace=wrap;html=1;fontSize=16;" vertex="1" parent="1">
          <mxGeometry x="680" y="58" width="60" height="20" as="geometry" />
        </mxCell>
        <mxCell id="OnwGt_X_7mAQr5yjR0-S-7" value="" style="rounded=1;whiteSpace=wrap;html=1;fontFamily=Verdana;fontSize=13;" vertex="1" parent="1">
          <mxGeometry x="120" y="215" width="560" height="50" as="geometry" />
        </mxCell>
        <mxCell id="OnwGt_X_7mAQr5yjR0-S-8" value="" style="html=1;verticalLabelPosition=bottom;align=center;labelBackgroundColor=#ffffff;verticalAlign=top;strokeWidth=2;strokeColor=#0080F0;shadow=0;dashed=0;shape=mxgraph.ios7.icons.looking_glass;fontFamily=Verdana;fontSize=13;" vertex="1" parent="1">
          <mxGeometry x="140" y="230" width="20" height="20" as="geometry" />
        </mxCell>
        <mxCell id="OnwGt_X_7mAQr5yjR0-S-9" value="How to use" style="text;html=1;strokeColor=none;fillColor=none;align=left;verticalAlign=middle;whiteSpace=wrap;rounded=0;fontSize=16;" vertex="1" parent="1">
          <mxGeometry x="570" y="57.5" width="110" height="25" as="geometry" />
        </mxCell>
        <mxCell id="OnwGt_X_7mAQr5yjR0-S-10" value="about us" style="text;html=1;strokeColor=none;fillColor=none;align=left;verticalAlign=middle;whiteSpace=wrap;rounded=0;fontSize=16;" vertex="1" parent="1">
          <mxGeometry x="460" y="57.5" width="110" height="25" as="geometry" />
        </mxCell>
        <mxCell id="OnwGt_X_7mAQr5yjR0-S-11" value="Cari lokasi atau nama makam" style="text;html=1;strokeColor=none;fillColor=none;align=left;verticalAlign=middle;whiteSpace=wrap;rounded=0;fontSize=16;" vertex="1" parent="1">
          <mxGeometry x="180" y="227.5" width="270" height="25" as="geometry" />
        </mxCell>
        <mxCell id="OnwGt_X_7mAQr5yjR0-S-12" value="" style="rounded=0;whiteSpace=wrap;html=1;" vertex="1" parent="1">
          <mxGeometry x="50" y="510" width="720" height="400" as="geometry" />
        </mxCell>
        <mxCell id="OnwGt_X_7mAQr5yjR0-S-13" value="" style="verticalLabelPosition=bottom;shadow=0;dashed=0;align=center;html=1;verticalAlign=top;strokeWidth=1;shape=mxgraph.mockup.misc.map;" vertex="1" parent="1">
          <mxGeometry x="50" y="510" width="720" height="400" as="geometry" />
        </mxCell>
        <mxCell id="OnwGt_X_7mAQr5yjR0-S-14" value="" style="rounded=1;whiteSpace=wrap;html=1;" vertex="1" parent="1">
          <mxGeometry x="60" y="520" width="700" height="40" as="geometry" />
        </mxCell>
        <mxCell id="OnwGt_X_7mAQr5yjR0-S-15" value="infomakam.xyz" style="text;html=1;strokeColor=none;fillColor=none;align=left;verticalAlign=middle;whiteSpace=wrap;rounded=0;fontSize=16;" vertex="1" parent="1">
          <mxGeometry x="68" y="525.5" width="110" height="25" as="geometry" />
        </mxCell>
        <mxCell id="OnwGt_X_7mAQr5yjR0-S-16" value="&lt;font style=&quot;font-size: 13px;&quot; face=&quot;Verdana&quot;&gt;login&lt;/font&gt;" style="rounded=1;whiteSpace=wrap;html=1;fontSize=16;" vertex="1" parent="1">
          <mxGeometry x="690" y="528" width="60" height="20" as="geometry" />
        </mxCell>
        <mxCell id="OnwGt_X_7mAQr5yjR0-S-17" value="" style="rounded=1;whiteSpace=wrap;html=1;fontFamily=Verdana;fontSize=13;" vertex="1" parent="1">
          <mxGeometry x="130" y="580" width="560" height="50" as="geometry" />
        </mxCell>
        <mxCell id="OnwGt_X_7mAQr5yjR0-S-18" value="" style="html=1;verticalLabelPosition=bottom;align=center;labelBackgroundColor=#ffffff;verticalAlign=top;strokeWidth=2;strokeColor=#0080F0;shadow=0;dashed=0;shape=mxgraph.ios7.icons.looking_glass;fontFamily=Verdana;fontSize=13;" vertex="1" parent="1">
          <mxGeometry x="148" y="595" width="20" height="20" as="geometry" />
        </mxCell>
        <mxCell id="OnwGt_X_7mAQr5yjR0-S-19" value="How to use" style="text;html=1;strokeColor=none;fillColor=none;align=left;verticalAlign=middle;whiteSpace=wrap;rounded=0;fontSize=16;" vertex="1" parent="1">
          <mxGeometry x="580" y="527.5" width="110" height="25" as="geometry" />
        </mxCell>
        <mxCell id="OnwGt_X_7mAQr5yjR0-S-20" value="about us" style="text;html=1;strokeColor=none;fillColor=none;align=left;verticalAlign=middle;whiteSpace=wrap;rounded=0;fontSize=16;" vertex="1" parent="1">
          <mxGeometry x="470" y="527.5" width="110" height="25" as="geometry" />
        </mxCell>
        <mxCell id="OnwGt_X_7mAQr5yjR0-S-22" value="" style="rounded=0;whiteSpace=wrap;html=1;fontFamily=Verdana;fontSize=13;" vertex="1" parent="1">
          <mxGeometry x="140" y="630" width="540" height="280" as="geometry" />
        </mxCell>
        <mxCell id="OnwGt_X_7mAQr5yjR0-S-24" value="Harga ^" style="rounded=1;whiteSpace=wrap;html=1;fontFamily=Verdana;fontSize=13;" vertex="1" parent="1">
          <mxGeometry x="150" y="640" width="90" height="20" as="geometry" />
        </mxCell>
        <mxCell id="OnwGt_X_7mAQr5yjR0-S-25" value="20 km ^" style="rounded=1;whiteSpace=wrap;html=1;fontFamily=Verdana;fontSize=13;" vertex="1" parent="1">
          <mxGeometry x="250" y="640" width="90" height="20" as="geometry" />
        </mxCell>
        <mxCell id="OnwGt_X_7mAQr5yjR0-S-27" value="" style="dashed=0;aspect=fixed;verticalLabelPosition=bottom;verticalAlign=top;align=center;shape=mxgraph.gmdl.gps;strokeColor=#737373;fillColor=#737373;shadow=0;strokeWidth=2;sketch=0;fontFamily=Verdana;fontSize=13;" vertex="1" parent="1">
          <mxGeometry x="640" y="230" width="20" height="20" as="geometry" />
        </mxCell>
        <mxCell id="OnwGt_X_7mAQr5yjR0-S-28" value="" style="dashed=0;aspect=fixed;verticalLabelPosition=bottom;verticalAlign=top;align=center;shape=mxgraph.gmdl.gps;strokeColor=#737373;fillColor=#737373;shadow=0;strokeWidth=2;sketch=0;fontFamily=Verdana;fontSize=13;" vertex="1" parent="1">
          <mxGeometry x="650" y="595" width="20" height="20" as="geometry" />
        </mxCell>
        <mxCell id="OnwGt_X_7mAQr5yjR0-S-29" value="TPU jatulaga &lt;b&gt;Banjarsari&lt;/b&gt;" style="rounded=0;whiteSpace=wrap;html=1;fontFamily=Verdana;fontSize=13;align=left;" vertex="1" parent="1">
          <mxGeometry x="150" y="670" width="520" height="40" as="geometry" />
        </mxCell>
        <mxCell id="OnwGt_X_7mAQr5yjR0-S-30" value="TPU ^" style="rounded=1;whiteSpace=wrap;html=1;fontFamily=Verdana;fontSize=13;" vertex="1" parent="1">
          <mxGeometry x="355" y="640" width="90" height="20" as="geometry" />
        </mxCell>
        <mxCell id="OnwGt_X_7mAQr5yjR0-S-31" value="Banjarsari" style="text;html=1;strokeColor=none;fillColor=none;align=center;verticalAlign=middle;whiteSpace=wrap;rounded=0;fontFamily=Verdana;fontSize=13;" vertex="1" parent="1">
          <mxGeometry x="177" y="590" width="60" height="30" as="geometry" />
        </mxCell>
        <mxCell id="OnwGt_X_7mAQr5yjR0-S-32" value="TPU ngadirejo &lt;b&gt;Banjarsari&lt;/b&gt;" style="rounded=0;whiteSpace=wrap;html=1;fontFamily=Verdana;fontSize=13;align=left;" vertex="1" parent="1">
          <mxGeometry x="150" y="720" width="520" height="40" as="geometry" />
        </mxCell>
        <mxCell id="OnwGt_X_7mAQr5yjR0-S-33" value="Makam daerah kecamatan &lt;b&gt;Banjarsari&lt;/b&gt;" style="rounded=0;whiteSpace=wrap;html=1;fontFamily=Verdana;fontSize=13;align=left;" vertex="1" parent="1">
          <mxGeometry x="150" y="770" width="520" height="40" as="geometry" />
        </mxCell>
        <mxCell id="OnwGt_X_7mAQr5yjR0-S-34" value="Makam daerah Kabupaten&amp;nbsp;&lt;b&gt;Banjarsari&lt;/b&gt;" style="rounded=0;whiteSpace=wrap;html=1;fontFamily=Verdana;fontSize=13;align=left;" vertex="1" parent="1">
          <mxGeometry x="150" y="820" width="520" height="40" as="geometry" />
        </mxCell>
        <mxCell id="OnwGt_X_7mAQr5yjR0-S-37" value="" style="rounded=1;whiteSpace=wrap;html=1;" vertex="1" parent="1">
          <mxGeometry x="60" y="970" width="700" height="40" as="geometry" />
        </mxCell>
        <mxCell id="OnwGt_X_7mAQr5yjR0-S-38" value="infomakam.xyz" style="text;html=1;strokeColor=none;fillColor=none;align=left;verticalAlign=middle;whiteSpace=wrap;rounded=0;fontSize=16;" vertex="1" parent="1">
          <mxGeometry x="68" y="975.5" width="110" height="25" as="geometry" />
        </mxCell>
        <mxCell id="OnwGt_X_7mAQr5yjR0-S-39" value="&lt;font style=&quot;font-size: 13px;&quot; face=&quot;Verdana&quot;&gt;login&lt;/font&gt;" style="rounded=1;whiteSpace=wrap;html=1;fontSize=16;" vertex="1" parent="1">
          <mxGeometry x="690" y="978" width="60" height="20" as="geometry" />
        </mxCell>
        <mxCell id="OnwGt_X_7mAQr5yjR0-S-40" value="" style="rounded=1;whiteSpace=wrap;html=1;fontFamily=Verdana;fontSize=13;" vertex="1" parent="1">
          <mxGeometry x="60" y="1015" width="210" height="25" as="geometry" />
        </mxCell>
        <mxCell id="OnwGt_X_7mAQr5yjR0-S-41" value="" style="html=1;verticalLabelPosition=bottom;align=center;labelBackgroundColor=#ffffff;verticalAlign=top;strokeWidth=2;strokeColor=#0080F0;shadow=0;dashed=0;shape=mxgraph.ios7.icons.looking_glass;fontFamily=Verdana;fontSize=13;" vertex="1" parent="1">
          <mxGeometry x="68" y="1023" width="12" height="10" as="geometry" />
        </mxCell>
        <mxCell id="OnwGt_X_7mAQr5yjR0-S-42" value="How to use" style="text;html=1;strokeColor=none;fillColor=none;align=left;verticalAlign=middle;whiteSpace=wrap;rounded=0;fontSize=16;" vertex="1" parent="1">
          <mxGeometry x="580" y="977.5" width="110" height="25" as="geometry" />
        </mxCell>
        <mxCell id="OnwGt_X_7mAQr5yjR0-S-43" value="about us" style="text;html=1;strokeColor=none;fillColor=none;align=left;verticalAlign=middle;whiteSpace=wrap;rounded=0;fontSize=16;" vertex="1" parent="1">
          <mxGeometry x="470" y="977.5" width="110" height="25" as="geometry" />
        </mxCell>
        <mxCell id="OnwGt_X_7mAQr5yjR0-S-47" value="" style="dashed=0;aspect=fixed;verticalLabelPosition=bottom;verticalAlign=top;align=center;shape=mxgraph.gmdl.gps;strokeColor=#737373;fillColor=#737373;shadow=0;strokeWidth=2;sketch=0;fontFamily=Verdana;fontSize=13;" vertex="1" parent="1">
          <mxGeometry x="240" y="1018" width="20" height="20" as="geometry" />
        </mxCell>
        <mxCell id="OnwGt_X_7mAQr5yjR0-S-50" value="&lt;font style=&quot;font-size: 7px;&quot;&gt;&lt;span style=&quot;text-align: left;&quot;&gt;Makam daerah kecamatan&amp;nbsp;&lt;/span&gt;&lt;b style=&quot;text-align: left;&quot;&gt;Banjarsari&lt;/b&gt;&lt;/font&gt;" style="text;html=1;strokeColor=none;fillColor=none;align=center;verticalAlign=middle;whiteSpace=wrap;rounded=0;fontFamily=Verdana;fontSize=13;" vertex="1" parent="1">
          <mxGeometry x="87" y="1010.5" width="152" height="30" as="geometry" />
        </mxCell>
        <mxCell id="OnwGt_X_7mAQr5yjR0-S-54" value="" style="shape=image;html=1;verticalAlign=top;verticalLabelPosition=bottom;labelBackgroundColor=#ffffff;imageAspect=0;aspect=fixed;image=https://cdn3.iconfinder.com/data/icons/internet-and-web-4/78/internt_web_technology-08-128.png;fontFamily=Verdana;fontSize=7;" vertex="1" parent="1">
          <mxGeometry x="200" y="1100" width="28" height="28" as="geometry" />
        </mxCell>
        <mxCell id="OnwGt_X_7mAQr5yjR0-S-57" value="" style="shape=image;html=1;verticalAlign=top;verticalLabelPosition=bottom;labelBackgroundColor=#ffffff;imageAspect=0;aspect=fixed;image=https://cdn3.iconfinder.com/data/icons/internet-and-web-4/78/internt_web_technology-08-128.png;fontFamily=Verdana;fontSize=7;" vertex="1" parent="1">
          <mxGeometry x="144" y="1300" width="28" height="28" as="geometry" />
        </mxCell>
        <mxCell id="OnwGt_X_7mAQr5yjR0-S-58" value="" style="shape=image;html=1;verticalAlign=top;verticalLabelPosition=bottom;labelBackgroundColor=#ffffff;imageAspect=0;aspect=fixed;image=https://cdn4.iconfinder.com/data/icons/essentials-74/24/025_-_Location-128.png;fontFamily=Verdana;fontSize=7;" vertex="1" parent="1">
          <mxGeometry x="250" y="1163.5" width="48" height="48" as="geometry" />
        </mxCell>
        <mxCell id="OnwGt_X_7mAQr5yjR0-S-60" value="TPU japulaga banjarsai" style="text;html=1;strokeColor=none;fillColor=none;align=center;verticalAlign=middle;whiteSpace=wrap;rounded=0;fontFamily=Verdana;fontSize=7;" vertex="1" parent="1">
          <mxGeometry x="430" y="1018" width="110" height="30" as="geometry" />
        </mxCell>
        <mxCell id="OnwGt_X_7mAQr5yjR0-S-61" value="route lokasi" style="rounded=0;whiteSpace=wrap;html=1;fontFamily=Verdana;fontSize=7;" vertex="1" parent="1">
          <mxGeometry x="650" y="1023" width="50" height="17" as="geometry" />
        </mxCell>
        <mxCell id="OnwGt_X_7mAQr5yjR0-S-62" value="route gmaps" style="rounded=0;whiteSpace=wrap;html=1;fontFamily=Verdana;fontSize=7;" vertex="1" parent="1">
          <mxGeometry x="710" y="1023.5" width="50" height="17" as="geometry" />
        </mxCell>
        <mxCell id="OnwGt_X_7mAQr5yjR0-S-63" value="Ketersesiaan dan harga" style="shape=table;startSize=30;container=1;collapsible=0;childLayout=tableLayout;fontStyle=1;align=center;fontFamily=Verdana;fontSize=7;" vertex="1" parent="1">
          <mxGeometry x="445" y="1061.5" width="315" height="128.5" as="geometry" />
        </mxCell>
        <mxCell id="OnwGt_X_7mAQr5yjR0-S-64" value="" style="shape=tableRow;horizontal=0;startSize=0;swimlaneHead=0;swimlaneBody=0;top=0;left=0;bottom=0;right=0;collapsible=0;dropTarget=0;fillColor=none;points=[[0,0.5],[1,0.5]];portConstraint=eastwest;fontFamily=Verdana;fontSize=7;" vertex="1" parent="OnwGt_X_7mAQr5yjR0-S-63">
          <mxGeometry y="30" width="315" height="33" as="geometry" />
        </mxCell>
        <mxCell id="OnwGt_X_7mAQr5yjR0-S-65" value="reguler" style="shape=partialRectangle;html=1;whiteSpace=wrap;connectable=0;fillColor=none;top=0;left=0;bottom=0;right=0;overflow=hidden;fontFamily=Verdana;fontSize=7;" vertex="1" parent="OnwGt_X_7mAQr5yjR0-S-64">
          <mxGeometry width="105" height="33" as="geometry">
            <mxRectangle width="105" height="33" as="alternateBounds" />
          </mxGeometry>
        </mxCell>
        <mxCell id="OnwGt_X_7mAQr5yjR0-S-66" value="2.500.000 x 1" style="shape=partialRectangle;html=1;whiteSpace=wrap;connectable=0;fillColor=none;top=0;left=0;bottom=0;right=0;overflow=hidden;fontFamily=Verdana;fontSize=7;" vertex="1" parent="OnwGt_X_7mAQr5yjR0-S-64">
          <mxGeometry x="105" width="105" height="33" as="geometry">
            <mxRectangle width="105" height="33" as="alternateBounds" />
          </mxGeometry>
        </mxCell>
        <mxCell id="OnwGt_X_7mAQr5yjR0-S-67" value="tersedia 20 petak" style="shape=partialRectangle;html=1;whiteSpace=wrap;connectable=0;fillColor=none;top=0;left=0;bottom=0;right=0;overflow=hidden;fontFamily=Verdana;fontSize=7;" vertex="1" parent="OnwGt_X_7mAQr5yjR0-S-64">
          <mxGeometry x="210" width="105" height="33" as="geometry">
            <mxRectangle width="105" height="33" as="alternateBounds" />
          </mxGeometry>
        </mxCell>
        <mxCell id="OnwGt_X_7mAQr5yjR0-S-68" value="" style="shape=tableRow;horizontal=0;startSize=0;swimlaneHead=0;swimlaneBody=0;top=0;left=0;bottom=0;right=0;collapsible=0;dropTarget=0;fillColor=none;points=[[0,0.5],[1,0.5]];portConstraint=eastwest;fontFamily=Verdana;fontSize=7;" vertex="1" parent="OnwGt_X_7mAQr5yjR0-S-63">
          <mxGeometry y="63" width="315" height="33" as="geometry" />
        </mxCell>
        <mxCell id="OnwGt_X_7mAQr5yjR0-S-69" value="reguler dengan perawatan rutin" style="shape=partialRectangle;html=1;whiteSpace=wrap;connectable=0;fillColor=none;top=0;left=0;bottom=0;right=0;overflow=hidden;fontFamily=Verdana;fontSize=7;" vertex="1" parent="OnwGt_X_7mAQr5yjR0-S-68">
          <mxGeometry width="105" height="33" as="geometry">
            <mxRectangle width="105" height="33" as="alternateBounds" />
          </mxGeometry>
        </mxCell>
        <mxCell id="OnwGt_X_7mAQr5yjR0-S-70" value="2.500.000 x 1 + (50.000/bln)" style="shape=partialRectangle;html=1;whiteSpace=wrap;connectable=0;fillColor=none;top=0;left=0;bottom=0;right=0;overflow=hidden;fontFamily=Verdana;fontSize=7;" vertex="1" parent="OnwGt_X_7mAQr5yjR0-S-68">
          <mxGeometry x="105" width="105" height="33" as="geometry">
            <mxRectangle width="105" height="33" as="alternateBounds" />
          </mxGeometry>
        </mxCell>
        <mxCell id="OnwGt_X_7mAQr5yjR0-S-71" value="tersedia 20 petak" style="shape=partialRectangle;html=1;whiteSpace=wrap;connectable=0;fillColor=none;top=0;left=0;bottom=0;right=0;overflow=hidden;fontFamily=Verdana;fontSize=7;" vertex="1" parent="OnwGt_X_7mAQr5yjR0-S-68">
          <mxGeometry x="210" width="105" height="33" as="geometry">
            <mxRectangle width="105" height="33" as="alternateBounds" />
          </mxGeometry>
        </mxCell>
        <mxCell id="OnwGt_X_7mAQr5yjR0-S-72" value="" style="shape=tableRow;horizontal=0;startSize=0;swimlaneHead=0;swimlaneBody=0;top=0;left=0;bottom=0;right=0;collapsible=0;dropTarget=0;fillColor=none;points=[[0,0.5],[1,0.5]];portConstraint=eastwest;fontFamily=Verdana;fontSize=7;" vertex="1" parent="OnwGt_X_7mAQr5yjR0-S-63">
          <mxGeometry y="96" width="315" height="33" as="geometry" />
        </mxCell>
        <mxCell id="OnwGt_X_7mAQr5yjR0-S-73" value="tanah kosong" style="shape=partialRectangle;html=1;whiteSpace=wrap;connectable=0;fillColor=none;top=0;left=0;bottom=0;right=0;overflow=hidden;fontFamily=Verdana;fontSize=7;" vertex="1" parent="OnwGt_X_7mAQr5yjR0-S-72">
          <mxGeometry width="105" height="33" as="geometry">
            <mxRectangle width="105" height="33" as="alternateBounds" />
          </mxGeometry>
        </mxCell>
        <mxCell id="OnwGt_X_7mAQr5yjR0-S-74" value="2.000.000 x 1" style="shape=partialRectangle;html=1;whiteSpace=wrap;connectable=0;fillColor=none;top=0;left=0;bottom=0;right=0;overflow=hidden;fontFamily=Verdana;fontSize=7;" vertex="1" parent="OnwGt_X_7mAQr5yjR0-S-72">
          <mxGeometry x="105" width="105" height="33" as="geometry">
            <mxRectangle width="105" height="33" as="alternateBounds" />
          </mxGeometry>
        </mxCell>
        <mxCell id="OnwGt_X_7mAQr5yjR0-S-75" value="terseda 20 petak" style="shape=partialRectangle;html=1;whiteSpace=wrap;connectable=0;fillColor=none;top=0;left=0;bottom=0;right=0;overflow=hidden;fontFamily=Verdana;fontSize=7;" vertex="1" parent="OnwGt_X_7mAQr5yjR0-S-72">
          <mxGeometry x="210" width="105" height="33" as="geometry">
            <mxRectangle width="105" height="33" as="alternateBounds" />
          </mxGeometry>
        </mxCell>
        <mxCell id="OnwGt_X_7mAQr5yjR0-S-76" value="" style="rounded=0;whiteSpace=wrap;html=1;fontFamily=Verdana;fontSize=7;" vertex="1" parent="1">
          <mxGeometry x="445" y="1200" width="315" height="110" as="geometry" />
        </mxCell>
        <mxCell id="OnwGt_X_7mAQr5yjR0-S-77" value="" style="sketch=0;outlineConnect=0;fontColor=#232F3E;gradientColor=none;fillColor=#D45B07;strokeColor=none;dashed=0;verticalLabelPosition=bottom;verticalAlign=top;align=center;html=1;fontSize=12;fontStyle=0;aspect=fixed;pointerEvents=1;shape=mxgraph.aws4.container_registry_image;fontFamily=Verdana;" vertex="1" parent="1">
          <mxGeometry x="570" y="1230" width="48" height="48" as="geometry" />
        </mxCell>
        <mxCell id="OnwGt_X_7mAQr5yjR0-S-78" value="Hubingi Pengelola" style="rounded=1;whiteSpace=wrap;html=1;fontFamily=Verdana;fontSize=7;" vertex="1" parent="1">
          <mxGeometry x="445" y="1320" width="115" height="24" as="geometry" />
        </mxCell>
        <mxCell id="OnwGt_X_7mAQr5yjR0-S-79" value="" style="endArrow=classic;html=1;rounded=0;fontFamily=Verdana;fontSize=7;entryX=0;entryY=0.5;entryDx=0;entryDy=0;exitX=0.112;exitY=0.505;exitDx=0;exitDy=0;exitPerimeter=0;strokeWidth=5;" edge="1" parent="1" source="OnwGt_X_7mAQr5yjR0-S-2" target="OnwGt_X_7mAQr5yjR0-S-22">
          <mxGeometry width="50" height="50" relative="1" as="geometry">
            <mxPoint x="430" y="590" as="sourcePoint" />
            <mxPoint x="480" y="540" as="targetPoint" />
            <Array as="points">
              <mxPoint x="-40" y="242" />
              <mxPoint x="-40" y="770" />
            </Array>
          </mxGeometry>
        </mxCell>
        <mxCell id="OnwGt_X_7mAQr5yjR0-S-80" value="" style="endArrow=classic;html=1;rounded=0;fontFamily=Verdana;fontSize=7;strokeWidth=5;entryX=1.004;entryY=0.565;entryDx=0;entryDy=0;entryPerimeter=0;exitX=1;exitY=0.5;exitDx=0;exitDy=0;" edge="1" parent="1" source="OnwGt_X_7mAQr5yjR0-S-33" target="OnwGt_X_7mAQr5yjR0-S-36">
          <mxGeometry width="50" height="50" relative="1" as="geometry">
            <mxPoint x="430" y="1050" as="sourcePoint" />
            <mxPoint x="480" y="1000" as="targetPoint" />
            <Array as="points">
              <mxPoint x="840" y="790" />
              <mxPoint x="840" y="1186" />
            </Array>
          </mxGeometry>
        </mxCell>
        <mxCell id="OnwGt_X_7mAQr5yjR0-S-81" value="" style="endArrow=none;html=1;rounded=0;fontFamily=Verdana;fontSize=7;strokeWidth=5;" edge="1" parent="1" source="OnwGt_X_7mAQr5yjR0-S-57" target="OnwGt_X_7mAQr5yjR0-S-58">
          <mxGeometry width="50" height="50" relative="1" as="geometry">
            <mxPoint x="390" y="1290" as="sourcePoint" />
            <mxPoint x="440" y="1240" as="targetPoint" />
            <Array as="points">
              <mxPoint x="90" y="1270" />
            </Array>
          </mxGeometry>
        </mxCell>
        <mxCell id="OnwGt_X_7mAQr5yjR0-S-82" value="Hubungi pengelola" style="swimlane;fontFamily=Verdana;fontSize=7;" vertex="1" parent="1">
          <mxGeometry x="168" y="1460" width="482" height="240" as="geometry" />
        </mxCell>
        <mxCell id="OnwGt_X_7mAQr5yjR0-S-83" value="" style="rounded=0;whiteSpace=wrap;html=1;fontFamily=Verdana;fontSize=7;" vertex="1" parent="OnwGt_X_7mAQr5yjR0-S-82">
          <mxGeometry y="24" width="480" height="216" as="geometry" />
        </mxCell>
        <mxCell id="OnwGt_X_7mAQr5yjR0-S-86" value="nama" style="rounded=0;whiteSpace=wrap;html=1;fontFamily=Verdana;fontSize=7;" vertex="1" parent="OnwGt_X_7mAQr5yjR0-S-82">
          <mxGeometry x="10" y="30" width="460" height="20" as="geometry" />
        </mxCell>
        <mxCell id="OnwGt_X_7mAQr5yjR0-S-87" value="nomor yang bdapat dihubungi" style="rounded=0;whiteSpace=wrap;html=1;fontFamily=Verdana;fontSize=7;" vertex="1" parent="OnwGt_X_7mAQr5yjR0-S-82">
          <mxGeometry x="10" y="60" width="460" height="20" as="geometry" />
        </mxCell>
        <mxCell id="OnwGt_X_7mAQr5yjR0-S-88" value="ketersediaan waktu (jam, secepatnya)" style="rounded=0;whiteSpace=wrap;html=1;fontFamily=Verdana;fontSize=7;" vertex="1" parent="OnwGt_X_7mAQr5yjR0-S-82">
          <mxGeometry x="11" y="90" width="460" height="20" as="geometry" />
        </mxCell>
        <mxCell id="OnwGt_X_7mAQr5yjR0-S-89" value="pilih paket" style="rounded=0;whiteSpace=wrap;html=1;fontFamily=Verdana;fontSize=7;" vertex="1" parent="OnwGt_X_7mAQr5yjR0-S-82">
          <mxGeometry x="11" y="122" width="460" height="20" as="geometry" />
        </mxCell>
        <mxCell id="OnwGt_X_7mAQr5yjR0-S-90" value="kirim" style="rounded=0;whiteSpace=wrap;html=1;fontFamily=Verdana;fontSize=7;" vertex="1" parent="OnwGt_X_7mAQr5yjR0-S-82">
          <mxGeometry x="10" y="210" width="460" height="20" as="geometry" />
        </mxCell>
        <mxCell id="OnwGt_X_7mAQr5yjR0-S-91" value="note" style="rounded=0;whiteSpace=wrap;html=1;fontFamily=Verdana;fontSize=7;" vertex="1" parent="OnwGt_X_7mAQr5yjR0-S-82">
          <mxGeometry x="11" y="150" width="460" height="40" as="geometry" />
        </mxCell>
        <mxCell id="OnwGt_X_7mAQr5yjR0-S-84" value="Kirim Request via whatsapp" style="rounded=1;whiteSpace=wrap;html=1;fontFamily=Verdana;fontSize=7;" vertex="1" parent="1">
          <mxGeometry x="640" y="1320" width="115" height="24" as="geometry" />
        </mxCell>
        <mxCell id="OnwGt_X_7mAQr5yjR0-S-85" value="" style="endArrow=classic;html=1;rounded=0;fontFamily=Verdana;fontSize=7;strokeWidth=5;exitX=0.5;exitY=1;exitDx=0;exitDy=0;entryX=1;entryY=0.489;entryDx=0;entryDy=0;entryPerimeter=0;" edge="1" parent="1" source="OnwGt_X_7mAQr5yjR0-S-84" target="OnwGt_X_7mAQr5yjR0-S-83">
          <mxGeometry width="50" height="50" relative="1" as="geometry">
            <mxPoint x="470" y="1560" as="sourcePoint" />
            <mxPoint x="520" y="1510" as="targetPoint" />
            <Array as="points">
              <mxPoint x="700" y="1590" />
            </Array>
          </mxGeometry>
        </mxCell>
        <mxCell id="OnwGt_X_7mAQr5yjR0-S-92" value="" style="endArrow=classic;html=1;rounded=0;fontFamily=Verdana;fontSize=7;strokeWidth=5;exitX=0.5;exitY=1;exitDx=0;exitDy=0;" edge="1" parent="1" source="OnwGt_X_7mAQr5yjR0-S-82" target="OnwGt_X_7mAQr5yjR0-S-93">
          <mxGeometry width="50" height="50" relative="1" as="geometry">
            <mxPoint x="380" y="1730" as="sourcePoint" />
            <mxPoint y="1920" as="targetPoint" />
            <Array as="points">
              <mxPoint x="409" y="1920" />
            </Array>
          </mxGeometry>
        </mxCell>
        <mxCell id="OnwGt_X_7mAQr5yjR0-S-93" value="" style="dashed=0;outlineConnect=0;html=1;align=center;labelPosition=center;verticalLabelPosition=bottom;verticalAlign=top;shape=mxgraph.weblogos.whatsapp;fillColor=#00E676;strokeColor=#dddddd;fontFamily=Verdana;fontSize=7;" vertex="1" parent="1">
          <mxGeometry x="-60" y="1882.6" width="74.4" height="74.8" as="geometry" />
        </mxCell>
        <mxCell id="OnwGt_X_7mAQr5yjR0-S-94" value="" style="verticalLabelPosition=bottom;sketch=0;aspect=fixed;html=1;verticalAlign=top;strokeColor=none;align=center;outlineConnect=0;shape=mxgraph.citrix.ip_phone;fontFamily=Verdana;fontSize=7;" vertex="1" parent="1">
          <mxGeometry x="35.75" y="1390" width="76.5" height="37" as="geometry" />
        </mxCell>
        <mxCell id="OnwGt_X_7mAQr5yjR0-S-95" value="" style="endArrow=classic;html=1;rounded=0;fontFamily=Verdana;fontSize=7;strokeWidth=5;exitX=0.5;exitY=1;exitDx=0;exitDy=0;" edge="1" parent="1" source="OnwGt_X_7mAQr5yjR0-S-78" target="OnwGt_X_7mAQr5yjR0-S-94">
          <mxGeometry width="50" height="50" relative="1" as="geometry">
            <mxPoint x="430" y="1560" as="sourcePoint" />
            <mxPoint x="480" y="1510" as="targetPoint" />
            <Array as="points">
              <mxPoint x="503" y="1410" />
            </Array>
          </mxGeometry>
        </mxCell>
      </root>
    </mxGraphModel>
  </diagram>
  <diagram id="p1MttlRUuHE70OIqx3gC" name="admin">
    <mxGraphModel dx="715" dy="438" grid="1" gridSize="10" guides="1" tooltips="1" connect="1" arrows="1" fold="1" page="1" pageScale="1" pageWidth="850" pageHeight="1100" math="0" shadow="0">
      <root>
        <mxCell id="0" />
        <mxCell id="1" parent="0" />
        <mxCell id="5hMiIYTr5jCHaU75eb_N-1" value="" style="rounded=0;whiteSpace=wrap;html=1;fontFamily=Verdana;fontSize=7;" vertex="1" parent="1">
          <mxGeometry x="120" y="80" width="480" height="270" as="geometry" />
        </mxCell>
        <mxCell id="5hMiIYTr5jCHaU75eb_N-2" value="username" style="rounded=0;whiteSpace=wrap;html=1;fontFamily=Verdana;fontSize=7;" vertex="1" parent="1">
          <mxGeometry x="230" y="110" width="240" height="30" as="geometry" />
        </mxCell>
        <mxCell id="5hMiIYTr5jCHaU75eb_N-3" value="password" style="rounded=0;whiteSpace=wrap;html=1;fontFamily=Verdana;fontSize=7;" vertex="1" parent="1">
          <mxGeometry x="230" y="150" width="240" height="30" as="geometry" />
        </mxCell>
        <mxCell id="5hMiIYTr5jCHaU75eb_N-4" value="retype password" style="rounded=0;whiteSpace=wrap;html=1;fontFamily=Verdana;fontSize=7;" vertex="1" parent="1">
          <mxGeometry x="230" y="190" width="240" height="30" as="geometry" />
        </mxCell>
        <mxCell id="5hMiIYTr5jCHaU75eb_N-6" value="register" style="rounded=0;whiteSpace=wrap;html=1;fontFamily=Verdana;fontSize=7;" vertex="1" parent="1">
          <mxGeometry x="230" y="250" width="240" height="30" as="geometry" />
        </mxCell>
        <mxCell id="5hMiIYTr5jCHaU75eb_N-8" value="" style="rounded=0;whiteSpace=wrap;html=1;fontFamily=Verdana;fontSize=7;" vertex="1" parent="1">
          <mxGeometry x="120" y="380" width="480" height="270" as="geometry" />
        </mxCell>
        <mxCell id="5hMiIYTr5jCHaU75eb_N-9" value="login" style="rounded=0;whiteSpace=wrap;html=1;fontFamily=Verdana;fontSize=7;" vertex="1" parent="1">
          <mxGeometry x="230" y="410" width="240" height="30" as="geometry" />
        </mxCell>
        <mxCell id="5hMiIYTr5jCHaU75eb_N-10" value="password" style="rounded=0;whiteSpace=wrap;html=1;fontFamily=Verdana;fontSize=7;" vertex="1" parent="1">
          <mxGeometry x="230" y="450" width="240" height="30" as="geometry" />
        </mxCell>
        <mxCell id="5hMiIYTr5jCHaU75eb_N-11" value="lupa password" style="rounded=0;whiteSpace=wrap;html=1;fontFamily=Verdana;fontSize=7;" vertex="1" parent="1">
          <mxGeometry x="230" y="490" width="240" height="30" as="geometry" />
        </mxCell>
        <mxCell id="5hMiIYTr5jCHaU75eb_N-12" value="login" style="rounded=0;whiteSpace=wrap;html=1;fontFamily=Verdana;fontSize=7;" vertex="1" parent="1">
          <mxGeometry x="230" y="550" width="240" height="30" as="geometry" />
        </mxCell>
        <mxCell id="5hMiIYTr5jCHaU75eb_N-13" value="" style="rounded=0;whiteSpace=wrap;html=1;fontFamily=Verdana;fontSize=7;" vertex="1" parent="1">
          <mxGeometry x="120" y="720" width="480" height="330" as="geometry" />
        </mxCell>
        <mxCell id="5hMiIYTr5jCHaU75eb_N-18" value="" style="rounded=0;whiteSpace=wrap;html=1;fontFamily=Verdana;fontSize=7;" vertex="1" parent="1">
          <mxGeometry x="120" y="720" width="120" height="330" as="geometry" />
        </mxCell>
        <mxCell id="5hMiIYTr5jCHaU75eb_N-19" value="&lt;font style=&quot;font-size: 10px;&quot;&gt;Daftar harga&lt;/font&gt;" style="rounded=1;whiteSpace=wrap;html=1;fontFamily=Verdana;fontSize=7;fillColor=#fff2cc;strokeColor=#d6b656;" vertex="1" parent="1">
          <mxGeometry x="130" y="740" width="100" height="30" as="geometry" />
        </mxCell>
        <mxCell id="5hMiIYTr5jCHaU75eb_N-20" value="&lt;font style=&quot;font-size: 10px;&quot;&gt;Profile Makam&lt;/font&gt;" style="rounded=1;whiteSpace=wrap;html=1;fontFamily=Verdana;fontSize=7;" vertex="1" parent="1">
          <mxGeometry x="130" y="780" width="100" height="30" as="geometry" />
        </mxCell>
        <mxCell id="5hMiIYTr5jCHaU75eb_N-21" value="&lt;font style=&quot;font-size: 10px;&quot;&gt;Statistik&lt;/font&gt;" style="rounded=1;whiteSpace=wrap;html=1;fontFamily=Verdana;fontSize=7;" vertex="1" parent="1">
          <mxGeometry x="130" y="820" width="100" height="30" as="geometry" />
        </mxCell>
        <mxCell id="5hMiIYTr5jCHaU75eb_N-22" value="&lt;font style=&quot;font-size: 10px;&quot;&gt;akun&lt;/font&gt;" style="rounded=1;whiteSpace=wrap;html=1;fontFamily=Verdana;fontSize=7;" vertex="1" parent="1">
          <mxGeometry x="130" y="860" width="100" height="30" as="geometry" />
        </mxCell>
        <mxCell id="5hMiIYTr5jCHaU75eb_N-23" value="Table" style="shape=table;startSize=30;container=1;collapsible=0;childLayout=tableLayout;fontStyle=1;align=center;fontFamily=Verdana;fontSize=10;" vertex="1" parent="1">
          <mxGeometry x="260" y="770" width="320" height="240" as="geometry" />
        </mxCell>
        <mxCell id="5hMiIYTr5jCHaU75eb_N-24" value="" style="shape=tableRow;horizontal=0;startSize=0;swimlaneHead=0;swimlaneBody=0;top=0;left=0;bottom=0;right=0;collapsible=0;dropTarget=0;fillColor=none;points=[[0,0.5],[1,0.5]];portConstraint=eastwest;fontFamily=Verdana;fontSize=10;" vertex="1" parent="5hMiIYTr5jCHaU75eb_N-23">
          <mxGeometry y="30" width="320" height="70" as="geometry" />
        </mxCell>
        <mxCell id="5hMiIYTr5jCHaU75eb_N-25" value="" style="shape=partialRectangle;html=1;whiteSpace=wrap;connectable=0;fillColor=none;top=0;left=0;bottom=0;right=0;overflow=hidden;fontFamily=Verdana;fontSize=10;" vertex="1" parent="5hMiIYTr5jCHaU75eb_N-24">
          <mxGeometry width="107" height="70" as="geometry">
            <mxRectangle width="107" height="70" as="alternateBounds" />
          </mxGeometry>
        </mxCell>
        <mxCell id="5hMiIYTr5jCHaU75eb_N-26" value="" style="shape=partialRectangle;html=1;whiteSpace=wrap;connectable=0;fillColor=none;top=0;left=0;bottom=0;right=0;overflow=hidden;fontFamily=Verdana;fontSize=10;" vertex="1" parent="5hMiIYTr5jCHaU75eb_N-24">
          <mxGeometry x="107" width="106" height="70" as="geometry">
            <mxRectangle width="106" height="70" as="alternateBounds" />
          </mxGeometry>
        </mxCell>
        <mxCell id="5hMiIYTr5jCHaU75eb_N-27" value="" style="shape=partialRectangle;html=1;whiteSpace=wrap;connectable=0;fillColor=none;top=0;left=0;bottom=0;right=0;overflow=hidden;fontFamily=Verdana;fontSize=10;" vertex="1" parent="5hMiIYTr5jCHaU75eb_N-24">
          <mxGeometry x="213" width="107" height="70" as="geometry">
            <mxRectangle width="107" height="70" as="alternateBounds" />
          </mxGeometry>
        </mxCell>
        <mxCell id="5hMiIYTr5jCHaU75eb_N-28" value="" style="shape=tableRow;horizontal=0;startSize=0;swimlaneHead=0;swimlaneBody=0;top=0;left=0;bottom=0;right=0;collapsible=0;dropTarget=0;fillColor=none;points=[[0,0.5],[1,0.5]];portConstraint=eastwest;fontFamily=Verdana;fontSize=10;" vertex="1" parent="5hMiIYTr5jCHaU75eb_N-23">
          <mxGeometry y="100" width="320" height="70" as="geometry" />
        </mxCell>
        <mxCell id="5hMiIYTr5jCHaU75eb_N-29" value="" style="shape=partialRectangle;html=1;whiteSpace=wrap;connectable=0;fillColor=none;top=0;left=0;bottom=0;right=0;overflow=hidden;fontFamily=Verdana;fontSize=10;" vertex="1" parent="5hMiIYTr5jCHaU75eb_N-28">
          <mxGeometry width="107" height="70" as="geometry">
            <mxRectangle width="107" height="70" as="alternateBounds" />
          </mxGeometry>
        </mxCell>
        <mxCell id="5hMiIYTr5jCHaU75eb_N-30" value="" style="shape=partialRectangle;html=1;whiteSpace=wrap;connectable=0;fillColor=none;top=0;left=0;bottom=0;right=0;overflow=hidden;fontFamily=Verdana;fontSize=10;" vertex="1" parent="5hMiIYTr5jCHaU75eb_N-28">
          <mxGeometry x="107" width="106" height="70" as="geometry">
            <mxRectangle width="106" height="70" as="alternateBounds" />
          </mxGeometry>
        </mxCell>
        <mxCell id="5hMiIYTr5jCHaU75eb_N-31" value="" style="shape=partialRectangle;html=1;whiteSpace=wrap;connectable=0;fillColor=none;top=0;left=0;bottom=0;right=0;overflow=hidden;fontFamily=Verdana;fontSize=10;" vertex="1" parent="5hMiIYTr5jCHaU75eb_N-28">
          <mxGeometry x="213" width="107" height="70" as="geometry">
            <mxRectangle width="107" height="70" as="alternateBounds" />
          </mxGeometry>
        </mxCell>
        <mxCell id="5hMiIYTr5jCHaU75eb_N-32" value="" style="shape=tableRow;horizontal=0;startSize=0;swimlaneHead=0;swimlaneBody=0;top=0;left=0;bottom=0;right=0;collapsible=0;dropTarget=0;fillColor=none;points=[[0,0.5],[1,0.5]];portConstraint=eastwest;fontFamily=Verdana;fontSize=10;" vertex="1" parent="5hMiIYTr5jCHaU75eb_N-23">
          <mxGeometry y="170" width="320" height="70" as="geometry" />
        </mxCell>
        <mxCell id="5hMiIYTr5jCHaU75eb_N-33" value="" style="shape=partialRectangle;html=1;whiteSpace=wrap;connectable=0;fillColor=none;top=0;left=0;bottom=0;right=0;overflow=hidden;fontFamily=Verdana;fontSize=10;" vertex="1" parent="5hMiIYTr5jCHaU75eb_N-32">
          <mxGeometry width="107" height="70" as="geometry">
            <mxRectangle width="107" height="70" as="alternateBounds" />
          </mxGeometry>
        </mxCell>
        <mxCell id="5hMiIYTr5jCHaU75eb_N-34" value="" style="shape=partialRectangle;html=1;whiteSpace=wrap;connectable=0;fillColor=none;top=0;left=0;bottom=0;right=0;overflow=hidden;fontFamily=Verdana;fontSize=10;" vertex="1" parent="5hMiIYTr5jCHaU75eb_N-32">
          <mxGeometry x="107" width="106" height="70" as="geometry">
            <mxRectangle width="106" height="70" as="alternateBounds" />
          </mxGeometry>
        </mxCell>
        <mxCell id="5hMiIYTr5jCHaU75eb_N-35" value="" style="shape=partialRectangle;html=1;whiteSpace=wrap;connectable=0;fillColor=none;top=0;left=0;bottom=0;right=0;overflow=hidden;fontFamily=Verdana;fontSize=10;" vertex="1" parent="5hMiIYTr5jCHaU75eb_N-32">
          <mxGeometry x="213" width="107" height="70" as="geometry">
            <mxRectangle width="107" height="70" as="alternateBounds" />
          </mxGeometry>
        </mxCell>
        <mxCell id="5hMiIYTr5jCHaU75eb_N-36" value="" style="rounded=0;whiteSpace=wrap;html=1;fontFamily=Verdana;fontSize=7;" vertex="1" parent="1">
          <mxGeometry x="120" y="1090" width="480" height="330" as="geometry" />
        </mxCell>
        <mxCell id="5hMiIYTr5jCHaU75eb_N-37" value="" style="rounded=0;whiteSpace=wrap;html=1;fontFamily=Verdana;fontSize=7;" vertex="1" parent="1">
          <mxGeometry x="120" y="1090" width="120" height="330" as="geometry" />
        </mxCell>
        <mxCell id="5hMiIYTr5jCHaU75eb_N-38" value="&lt;font style=&quot;font-size: 10px;&quot;&gt;Daftar harga&lt;/font&gt;" style="rounded=1;whiteSpace=wrap;html=1;fontFamily=Verdana;fontSize=7;" vertex="1" parent="1">
          <mxGeometry x="130" y="1110" width="100" height="30" as="geometry" />
        </mxCell>
        <mxCell id="5hMiIYTr5jCHaU75eb_N-39" value="&lt;font style=&quot;font-size: 10px;&quot;&gt;Profile Makam&lt;/font&gt;" style="rounded=1;whiteSpace=wrap;html=1;fontFamily=Verdana;fontSize=7;fillColor=#fff2cc;strokeColor=#d6b656;" vertex="1" parent="1">
          <mxGeometry x="130" y="1150" width="100" height="30" as="geometry" />
        </mxCell>
        <mxCell id="5hMiIYTr5jCHaU75eb_N-41" value="&lt;font style=&quot;font-size: 10px;&quot;&gt;akun&lt;/font&gt;" style="rounded=1;whiteSpace=wrap;html=1;fontFamily=Verdana;fontSize=7;" vertex="1" parent="1">
          <mxGeometry x="130" y="1190" width="100" height="30" as="geometry" />
        </mxCell>
        <mxCell id="5hMiIYTr5jCHaU75eb_N-55" value="nama makam" style="rounded=1;whiteSpace=wrap;html=1;fontFamily=Verdana;fontSize=10;" vertex="1" parent="1">
          <mxGeometry x="260" y="1110" width="320" height="40" as="geometry" />
        </mxCell>
        <mxCell id="5hMiIYTr5jCHaU75eb_N-56" value="set lokasi" style="rounded=1;whiteSpace=wrap;html=1;fontFamily=Verdana;fontSize=10;" vertex="1" parent="1">
          <mxGeometry x="260" y="1160" width="320" height="40" as="geometry" />
        </mxCell>
        <mxCell id="5hMiIYTr5jCHaU75eb_N-57" value="tambah foto" style="rounded=1;whiteSpace=wrap;html=1;fontFamily=Verdana;fontSize=10;" vertex="1" parent="1">
          <mxGeometry x="260" y="1220" width="320" height="40" as="geometry" />
        </mxCell>
        <mxCell id="5hMiIYTr5jCHaU75eb_N-58" value="desckripsi tambahan" style="rounded=1;whiteSpace=wrap;html=1;fontFamily=Verdana;fontSize=10;" vertex="1" parent="1">
          <mxGeometry x="260" y="1280" width="320" height="40" as="geometry" />
        </mxCell>
        <mxCell id="x3U7g23U1YLiSvLmI5-u-1" value="set jenis makam" style="rounded=1;whiteSpace=wrap;html=1;fontFamily=Verdana;fontSize=10;" vertex="1" parent="1">
          <mxGeometry x="260" y="1330" width="320" height="40" as="geometry" />
        </mxCell>
        <mxCell id="x3U7g23U1YLiSvLmI5-u-2" value="" style="rounded=0;whiteSpace=wrap;html=1;fontFamily=Verdana;fontSize=7;" vertex="1" parent="1">
          <mxGeometry x="120" y="1480" width="480" height="330" as="geometry" />
        </mxCell>
        <mxCell id="x3U7g23U1YLiSvLmI5-u-3" value="" style="rounded=0;whiteSpace=wrap;html=1;fontFamily=Verdana;fontSize=7;" vertex="1" parent="1">
          <mxGeometry x="120" y="1480" width="120" height="330" as="geometry" />
        </mxCell>
        <mxCell id="x3U7g23U1YLiSvLmI5-u-4" value="&lt;font style=&quot;font-size: 10px;&quot;&gt;Daftar harga&lt;/font&gt;" style="rounded=1;whiteSpace=wrap;html=1;fontFamily=Verdana;fontSize=7;" vertex="1" parent="1">
          <mxGeometry x="130" y="1500" width="100" height="30" as="geometry" />
        </mxCell>
        <mxCell id="x3U7g23U1YLiSvLmI5-u-5" value="&lt;font style=&quot;font-size: 10px;&quot;&gt;Profile Makam&lt;/font&gt;" style="rounded=1;whiteSpace=wrap;html=1;fontFamily=Verdana;fontSize=7;" vertex="1" parent="1">
          <mxGeometry x="130" y="1540" width="100" height="30" as="geometry" />
        </mxCell>
        <mxCell id="x3U7g23U1YLiSvLmI5-u-6" value="&lt;font style=&quot;font-size: 10px;&quot;&gt;akun&lt;/font&gt;" style="rounded=1;whiteSpace=wrap;html=1;fontFamily=Verdana;fontSize=7;fillColor=#fff2cc;strokeColor=#d6b656;" vertex="1" parent="1">
          <mxGeometry x="130" y="1580" width="100" height="30" as="geometry" />
        </mxCell>
        <mxCell id="x3U7g23U1YLiSvLmI5-u-7" value="username" style="rounded=1;whiteSpace=wrap;html=1;fontFamily=Verdana;fontSize=10;" vertex="1" parent="1">
          <mxGeometry x="260" y="1500" width="320" height="40" as="geometry" />
        </mxCell>
        <mxCell id="x3U7g23U1YLiSvLmI5-u-8" value="password" style="rounded=1;whiteSpace=wrap;html=1;fontFamily=Verdana;fontSize=10;" vertex="1" parent="1">
          <mxGeometry x="260" y="1550" width="320" height="40" as="geometry" />
        </mxCell>
        <mxCell id="x3U7g23U1YLiSvLmI5-u-12" value="hapus akun" style="rounded=1;whiteSpace=wrap;html=1;fontFamily=Verdana;fontSize=10;" vertex="1" parent="1">
          <mxGeometry x="260" y="1610" width="320" height="40" as="geometry" />
        </mxCell>
      </root>
    </mxGraphModel>
  </diagram>
</mxfile>
